<?xml version="1.0" encoding="utf-8"?>
<!-- Generator: Adobe Illustrator 23.0.2, SVG Export Plug-In . SVG Version: 6.00 Build 0)  -->
<svg version="1.1" id="Layer_1" xmlns="http://www.w3.org/2000/svg" xmlns:xlink="http://www.w3.org/1999/xlink" x="0px" y="0px"
	 viewBox="0 0 100 100" style="enable-background:new 0 0 100 100;" xml:space="preserve">
<style type="text/css">
	.st0{fill:#550A21;}
	.st1{font-family:'Lato-Bold';}
	.st2{font-size:55.3846px;}
	.st3{fill:#FFFFFF;}
</style>
<text transform="matrix(0.65 0 0 1 5.4556 98.7129)" class="st0 st1 st2">VINO</text>
<g>
	<path class="st0" d="M4.8,52.9c1.9-5.5,4.1-10.9,6.5-16.2c2.4-5.3,5.2-10.5,8.4-15.4c0.8-1.2,1.7-2.4,2.5-3.6
		c0.9-1.2,1.8-2.4,2.8-3.4c1.9-2.3,4.1-4.4,6.5-6.2c2.4-1.9,5.1-3.5,8-4.5c2.9-1.1,6.1-1.6,9.3-1.5C51.9,2.2,55,3,57.9,4.2
		c2.9,1.2,5.6,2.8,8,4.5c4.9,3.6,9,8.1,12.6,12.8c3.5,4.8,6.6,9.8,9.2,15.1c2.6,5.3,4.9,10.7,6.6,16.3l-0.5,0.2
		c-5.9-10-12.1-19.7-19.2-28.5c-3.6-4.4-7.4-8.5-11.7-12C58.7,9.2,53.7,6.6,48.5,6c-5.3-0.5-10.6,1.4-15.1,4.6
		c-2.3,1.6-4.4,3.5-6.3,5.5c-1,1-1.9,2.1-2.8,3.2c-0.9,1.1-1.8,2.2-2.6,3.4C14.9,32,9.9,42.5,5.2,53.1L4.8,52.9z"/>
</g>
<g>
	<circle class="st0" cx="23" cy="43" r="8"/>
	<g>
		<path class="st3" d="M19.5,37.5c1.4-0.9,3.2-1.2,4.9-0.9c1.7,0.3,3.3,1.4,4.2,2.8c1,1.5,1.3,3.3,1,5.1c-0.4,1.7-1.4,3.3-2.9,4.3
			c-1.5,1-3.4,1.4-5.2,1c-1.8-0.4-3.4-1.5-4.3-3c-0.9-1.5-1.2-3.5-0.7-5.2C16.9,39.9,18,38.4,19.5,37.5z M19.5,37.6
			c-1.4,0.9-2.4,2.5-2.7,4.1c-0.3,1.6,0.1,3.3,1,4.6c0.9,1.3,2.3,2.3,3.8,2.7c1.6,0.4,3.3,0.1,4.6-0.7c1.4-0.8,2.4-2.3,2.8-3.9
			c0.4-1.6,0.1-3.3-0.8-4.7c-0.8-1.4-2.3-2.5-3.9-2.9C22.8,36.3,20.9,36.6,19.5,37.6z"/>
	</g>
</g>
<g>
	<circle class="st0" cx="41" cy="43" r="8"/>
	<g>
		<path class="st3" d="M37.5,37.5c1.4-0.9,3.2-1.2,4.9-0.9c1.7,0.3,3.3,1.4,4.2,2.8c1,1.5,1.3,3.3,1,5.1c-0.4,1.7-1.4,3.3-2.9,4.3
			c-1.5,1-3.4,1.4-5.2,1c-1.8-0.4-3.4-1.5-4.3-3c-0.9-1.5-1.2-3.5-0.7-5.2C34.9,39.9,36,38.4,37.5,37.5z M37.5,37.6
			c-1.4,0.9-2.4,2.5-2.7,4.1c-0.3,1.6,0.1,3.3,1,4.6c0.9,1.3,2.3,2.3,3.8,2.7c1.6,0.4,3.3,0.1,4.6-0.7c1.4-0.8,2.4-2.3,2.8-3.9
			c0.4-1.6,0.1-3.3-0.8-4.7c-0.8-1.4-2.3-2.5-3.9-2.9C40.8,36.3,38.9,36.6,37.5,37.6z"/>
	</g>
</g>
<g>
	<circle class="st0" cx="58" cy="43" r="8"/>
	<g>
		<path class="st3" d="M54.5,37.5c1.4-0.9,3.2-1.2,4.9-0.9c1.7,0.3,3.3,1.4,4.2,2.8c1,1.5,1.3,3.3,1,5.1c-0.4,1.7-1.4,3.3-2.9,4.3
			c-1.5,1-3.4,1.4-5.2,1c-1.8-0.4-3.4-1.5-4.3-3c-0.9-1.5-1.2-3.5-0.7-5.2C51.9,39.9,53,38.4,54.5,37.5z M54.5,37.6
			c-1.4,0.9-2.4,2.5-2.7,4.1c-0.3,1.6,0.1,3.3,1,4.6c0.9,1.3,2.3,2.3,3.8,2.7c1.6,0.4,3.3,0.1,4.6-0.7c1.4-0.8,2.4-2.3,2.8-3.9
			c0.4-1.6,0.1-3.3-0.8-4.7c-0.8-1.4-2.3-2.5-3.9-2.9C57.8,36.3,55.9,36.6,54.5,37.6z"/>
	</g>
</g>
<g>
	<circle class="st0" cx="75" cy="43" r="8"/>
	<g>
		<path class="st3" d="M71.5,37.5c1.4-0.9,3.2-1.2,4.9-0.9c1.7,0.3,3.3,1.4,4.2,2.8c1,1.5,1.3,3.3,1,5.1c-0.4,1.7-1.4,3.3-2.9,4.3
			c-1.5,1-3.4,1.4-5.2,1c-1.8-0.4-3.4-1.5-4.3-3c-0.9-1.5-1.2-3.5-0.7-5.2C68.9,39.9,70,38.4,71.5,37.5z M71.5,37.6
			c-1.4,0.9-2.4,2.5-2.7,4.1c-0.3,1.6,0.1,3.3,1,4.6c0.9,1.3,2.3,2.3,3.8,2.7c1.6,0.4,3.3,0.1,4.6-0.7c1.4-0.8,2.4-2.3,2.8-3.9
			c0.4-1.6,0.1-3.3-0.8-4.7c-0.8-1.4-2.3-2.5-3.9-2.9C74.8,36.3,72.9,36.6,71.5,37.6z"/>
	</g>
</g>
<g>
	<circle class="st0" cx="31" cy="27" r="8"/>
	<g>
		<path class="st3" d="M27.5,21.5c1.4-0.9,3.2-1.2,4.9-0.9c1.7,0.3,3.3,1.4,4.2,2.8c1,1.5,1.3,3.3,1,5.1c-0.4,1.7-1.4,3.3-2.9,4.3
			c-1.5,1-3.4,1.4-5.2,1c-1.8-0.4-3.4-1.5-4.3-3c-0.9-1.5-1.2-3.5-0.7-5.2C24.9,23.9,26,22.4,27.5,21.5z M27.5,21.6
			c-1.4,0.9-2.4,2.5-2.7,4.1c-0.3,1.6,0.1,3.3,1,4.6c0.9,1.3,2.3,2.3,3.8,2.7c1.6,0.4,3.3,0.1,4.6-0.7c1.4-0.8,2.4-2.3,2.8-3.9
			c0.4-1.6,0.1-3.3-0.8-4.7c-0.8-1.4-2.3-2.5-3.9-2.9C30.8,20.3,28.9,20.6,27.5,21.6z"/>
	</g>
</g>
<g>
	<circle class="st0" cx="48" cy="27" r="8"/>
	<g>
		<path class="st3" d="M44.5,21.5c1.4-0.9,3.2-1.2,4.9-0.9c1.7,0.3,3.3,1.4,4.2,2.8c1,1.5,1.3,3.3,1,5.1c-0.4,1.7-1.4,3.3-2.9,4.3
			c-1.5,1-3.4,1.4-5.2,1c-1.8-0.4-3.4-1.5-4.3-3c-0.9-1.5-1.2-3.5-0.7-5.2C41.9,23.9,43,22.4,44.5,21.5z M44.5,21.6
			c-1.4,0.9-2.4,2.5-2.7,4.1c-0.3,1.6,0.1,3.3,1,4.6c0.9,1.3,2.3,2.3,3.8,2.7c1.6,0.4,3.3,0.1,4.6-0.7c1.4-0.8,2.4-2.3,2.8-3.9
			c0.4-1.6,0.1-3.3-0.8-4.7c-0.8-1.4-2.3-2.5-3.9-2.9C47.8,20.3,45.9,20.6,44.5,21.6z"/>
	</g>
</g>
<g>
	<circle class="st0" cx="65" cy="27" r="8"/>
	<g>
		<path class="st3" d="M61.5,21.5c1.4-0.9,3.2-1.2,4.9-0.9c1.7,0.3,3.3,1.4,4.2,2.8c1,1.5,1.3,3.3,1,5.1c-0.4,1.7-1.4,3.3-2.9,4.3
			c-1.5,1-3.4,1.4-5.2,1c-1.8-0.4-3.4-1.5-4.3-3c-0.9-1.5-1.2-3.5-0.7-5.2C58.9,23.9,60,22.4,61.5,21.5z M61.5,21.6
			c-1.4,0.9-2.4,2.5-2.7,4.1c-0.3,1.6,0.1,3.3,1,4.6c0.9,1.3,2.3,2.3,3.8,2.7c1.6,0.4,3.3,0.1,4.6-0.7c1.4-0.8,2.4-2.3,2.8-3.9
			c0.4-1.6,0.1-3.3-0.8-4.7c-0.8-1.4-2.3-2.5-3.9-2.9C64.8,20.3,62.9,20.6,61.5,21.6z"/>
	</g>
</g>
</svg>
